<svg width="530" height="119" viewBox="0 0 530 119" fill="none" xmlns="http://www.w3.org/2000/svg">
<path d="M29.688 94.28C24.1413 94.28 19.1493 92.9147 14.712 90.184C10.2747 87.4533 6.73333 83.7413 4.088 79.048C1.528 74.2693 0.248 68.936 0.248 63.048C0.248 57.0747 1.528 51.7413 4.088 47.048C6.73333 42.2693 10.2747 38.5147 14.712 35.784C19.1493 32.968 24.1413 31.56 29.688 31.56C34.2107 31.56 38.3067 32.456 41.976 34.248C45.6453 36.04 48.6747 38.6 51.064 41.928C53.5387 45.1707 54.9893 49.0107 55.416 53.448V72.264C54.904 76.616 53.4533 80.456 51.064 83.784C48.76 87.0267 45.7733 89.5867 42.104 91.464C38.4347 93.3413 34.296 94.28 29.688 94.28ZM31.224 85.704C35.4053 85.704 39.0747 84.7653 42.232 82.888C45.3893 80.9253 47.864 78.2373 49.656 74.824C51.448 71.3253 52.344 67.3573 52.344 62.92C52.344 58.3973 51.4053 54.4293 49.528 51.016C47.736 47.6027 45.2613 44.9147 42.104 42.952C38.9467 40.9893 35.2773 40.008 31.096 40.008C26.9147 40.008 23.2027 40.9893 19.96 42.952C16.7173 44.9147 14.1573 47.6453 12.28 51.144C10.488 54.5573 9.592 58.4827 9.592 62.92C9.592 67.3573 10.488 71.3253 12.28 74.824C14.1573 78.2373 16.7173 80.9253 19.96 82.888C23.288 84.7653 27.0427 85.704 31.224 85.704ZM60.792 93H51.832V76.872L53.624 62.024L51.832 47.56V2.376H60.792V93ZM102.771 94.28C97.907 94.28 93.555 93.1707 89.715 90.952C85.875 88.648 82.8457 85.5333 80.627 81.608C78.4937 77.6827 77.427 73.0747 77.427 67.784V32.84H86.515V67.4C86.515 71.0693 87.155 74.2693 88.435 77C89.8003 79.7307 91.7203 81.864 94.195 83.4C96.6697 84.936 99.5283 85.704 102.771 85.704C107.806 85.704 111.774 84.04 114.675 80.712C117.662 77.384 119.155 72.9467 119.155 67.4V32.84H128.115V67.784C128.115 72.9893 127.048 77.5973 124.915 81.608C122.782 85.6187 119.795 88.7333 115.955 90.952C112.115 93.1707 107.72 94.28 102.771 94.28ZM144.838 93V2.376H153.798V93H144.838ZM198.075 94.28C192.358 94.28 187.238 92.9147 182.715 90.184C178.192 87.368 174.608 83.6133 171.963 78.92C169.403 74.2267 168.123 68.936 168.123 63.048C168.123 57.0747 169.403 51.7413 171.963 47.048C174.608 42.2693 178.192 38.5147 182.715 35.784C187.238 32.968 192.315 31.56 197.947 31.56C202.555 31.56 206.651 32.4987 210.235 34.376C213.904 36.168 216.848 38.728 219.067 42.056C221.371 45.2987 222.779 49.096 223.291 53.448V72.264C222.779 76.616 221.371 80.456 219.067 83.784C216.848 87.112 213.904 89.7147 210.235 91.592C206.651 93.384 202.598 94.28 198.075 94.28ZM199.483 85.704C205.712 85.704 210.704 83.6133 214.459 79.432C218.299 75.2507 220.219 69.7467 220.219 62.92C220.219 58.3973 219.323 54.4293 217.531 51.016C215.824 47.5173 213.392 44.8293 210.235 42.952C207.163 40.9893 203.536 40.008 199.355 40.008C195.088 40.008 191.291 40.9893 187.963 42.952C184.72 44.9147 182.118 47.6453 180.155 51.144C178.278 54.5573 177.339 58.4827 177.339 62.92C177.339 67.3573 178.278 71.2827 180.155 74.696C182.118 78.1093 184.763 80.7973 188.091 82.76C191.419 84.7227 195.216 85.704 199.483 85.704ZM219.707 93V76.872L221.499 62.024L219.707 47.56V32.84H228.667V93H219.707ZM277.942 94.28C273.334 94.28 269.195 93.3413 265.526 91.464C261.857 89.5867 258.827 87.0267 256.438 83.784C254.134 80.456 252.726 76.616 252.214 72.264V53.448C252.726 49.0107 254.177 45.1707 256.566 41.928C258.955 38.6 261.985 36.04 265.654 34.248C269.409 32.456 273.505 31.56 277.942 31.56C283.489 31.56 288.481 32.968 292.918 35.784C297.355 38.5147 300.854 42.2693 303.414 47.048C306.059 51.7413 307.382 57.0747 307.382 63.048C307.382 68.936 306.102 74.2267 303.542 78.92C300.982 83.6133 297.441 87.368 292.918 90.184C288.481 92.9147 283.489 94.28 277.942 94.28ZM246.838 118.344V32.84H255.798V48.2L254.006 62.792L255.798 77.512V118.344H246.838ZM276.406 85.704C280.673 85.704 284.427 84.7653 287.67 82.888C290.913 80.9253 293.43 78.2373 295.222 74.824C297.099 71.3253 298.038 67.3573 298.038 62.92C298.038 58.3973 297.099 54.4293 295.222 51.016C293.43 47.6027 290.913 44.9147 287.67 42.952C284.427 40.9893 280.715 40.008 276.534 40.008C272.353 40.008 268.641 40.9893 265.398 42.952C262.241 44.9147 259.766 47.6027 257.974 51.016C256.182 54.4293 255.286 58.3973 255.286 62.92C255.286 67.3573 256.182 71.3253 257.974 74.824C259.766 78.2373 262.241 80.9253 265.398 82.888C268.555 84.7653 272.225 85.704 276.406 85.704Z" fill="#656565"/>
<path d="M331.569 94.28C328.497 94.28 325.98 93.256 324.017 91.208C322.054 89.16 321.073 86.6427 321.073 83.656C321.073 80.6693 322.054 78.152 324.017 76.104C325.98 74.056 328.497 73.032 331.569 73.032C334.556 73.032 337.03 74.056 338.993 76.104C340.956 78.152 341.937 80.6693 341.937 83.656C341.937 86.6427 340.956 89.16 338.993 91.208C337.03 93.256 334.556 94.28 331.569 94.28ZM357.799 93V31.176H374.567V93H357.799ZM398.119 93V56.52C398.119 52.936 396.967 50.1627 394.663 48.2C392.444 46.152 389.671 45.128 386.343 45.128C384.124 45.128 382.119 45.5973 380.327 46.536C378.535 47.3893 377.127 48.6693 376.103 50.376C375.079 52.0827 374.567 54.1307 374.567 56.52L368.039 53.32C368.039 48.5413 369.063 44.4027 371.111 40.904C373.244 37.4053 376.103 34.7173 379.687 32.84C383.271 30.8773 387.324 29.896 391.847 29.896C396.114 29.896 399.996 30.8773 403.495 32.84C406.994 34.7173 409.767 37.4053 411.815 40.904C413.863 44.3173 414.887 48.456 414.887 53.32V93H398.119ZM438.439 93V56.52C438.439 52.936 437.287 50.1627 434.983 48.2C432.764 46.152 429.991 45.128 426.663 45.128C424.53 45.128 422.524 45.5973 420.647 46.536C418.855 47.3893 417.447 48.6693 416.423 50.376C415.399 52.0827 414.887 54.1307 414.887 56.52L405.287 54.216C405.628 49.2667 406.951 45 409.255 41.416C411.559 37.7467 414.588 34.9307 418.343 32.968C422.098 30.92 426.279 29.896 430.887 29.896C435.495 29.896 439.634 30.8773 443.303 32.84C446.972 34.7173 449.874 37.448 452.007 41.032C454.14 44.616 455.207 48.8827 455.207 53.832V93H438.439ZM494.911 94.28C489.194 94.28 484.074 92.872 479.551 90.056C475.028 87.24 471.444 83.4 468.799 78.536C466.239 73.672 464.959 68.2107 464.959 62.152C464.959 56.008 466.239 50.504 468.799 45.64C471.444 40.776 474.986 36.936 479.423 34.12C483.946 31.304 489.108 29.896 494.911 29.896C499.348 29.896 503.316 30.792 506.815 32.584C510.399 34.376 513.258 36.8933 515.391 40.136C517.61 43.2933 518.804 46.8773 518.975 50.888V72.904C518.804 76.9147 517.652 80.5413 515.519 83.784C513.386 87.0267 510.527 89.5867 506.943 91.464C503.359 93.3413 499.348 94.28 494.911 94.28ZM497.727 78.792C500.884 78.792 503.615 78.1093 505.919 76.744C508.308 75.2933 510.143 73.3307 511.423 70.856C512.788 68.296 513.471 65.352 513.471 62.024C513.471 58.7813 512.788 55.9227 511.423 53.448C510.143 50.888 508.308 48.9253 505.919 47.56C503.615 46.1093 500.927 45.384 497.855 45.384C494.698 45.384 491.924 46.1093 489.535 47.56C487.231 49.0107 485.396 50.9733 484.031 53.448C482.751 55.9227 482.111 58.7813 482.111 62.024C482.111 65.352 482.751 68.296 484.031 70.856C485.396 73.3307 487.274 75.2933 489.663 76.744C492.052 78.1093 494.74 78.792 497.727 78.792ZM529.215 93H512.575V76.36L515.263 61.256L512.447 46.408V0.455994H529.215V93Z" fill="#F1A02D"/>
</svg>
