<svg width="783" height="124" viewBox="0 0 783 124" fill="none" xmlns="http://www.w3.org/2000/svg">
<path d="M747.52 96.6404C740.748 96.6404 734.757 95.1209 729.547 92.0821C724.338 88.9564 720.214 84.7888 717.175 79.5793C714.136 74.283 712.617 68.3789 712.617 61.867C712.617 55.3552 714.136 49.4945 717.175 44.285C720.214 38.9887 724.338 34.8211 729.547 31.7822C734.757 28.6565 740.748 27.0937 747.52 27.0937C754.292 27.0937 760.283 28.6565 765.493 31.7822C770.789 34.8211 774.913 38.9452 777.865 44.1547C780.904 49.3642 782.424 55.2683 782.424 61.867C782.424 68.3789 780.904 74.283 777.865 79.5793C774.913 84.7888 770.789 88.9564 765.493 92.0821C760.283 95.1209 754.292 96.6404 747.52 96.6404ZM747.52 86.3516C752.122 86.3516 756.116 85.2663 759.502 83.0957C762.888 80.9251 765.536 78.0164 767.446 74.3698C769.357 70.6363 770.312 66.4687 770.312 61.867C770.312 57.2653 769.357 53.1411 767.446 49.4945C765.536 45.761 762.888 42.809 759.502 40.6383C756.116 38.4677 752.122 37.3824 747.52 37.3824C743.005 37.3824 739.011 38.4677 735.538 40.6383C732.152 42.809 729.504 45.761 727.594 49.4945C725.684 53.1411 724.729 57.2653 724.729 61.867C724.729 66.4687 725.684 70.6363 727.594 74.3698C729.504 78.0164 732.152 80.9251 735.538 83.0957C739.011 85.2663 743.005 86.3516 747.52 86.3516Z" fill="#505050"/>
<path d="M685.23 95.079V28.658H697.342V95.079H685.23ZM691.351 18.1088C689.181 18.1088 687.271 17.3274 685.621 15.7645C684.058 14.1149 683.277 12.2047 683.277 10.0341C683.277 7.86347 684.058 5.99674 685.621 4.43389C687.271 2.78422 689.181 1.95938 691.351 1.95938C693.522 1.95938 695.389 2.78422 696.952 4.43389C698.601 5.99674 699.426 7.86347 699.426 10.0341C699.426 12.2047 698.601 14.1149 696.952 15.7645C695.389 17.3274 693.522 18.1088 691.351 18.1088Z" fill="#505050"/>
<path d="M632.657 96.6361C627.621 96.6361 623.019 95.8547 618.852 94.2918C614.684 92.6421 611.081 90.2545 608.042 87.1288C605.003 84.0031 602.616 80.2696 600.879 75.9284C599.229 71.5003 598.405 66.5513 598.405 61.0813C598.405 54.1353 599.794 48.1444 602.572 43.1086C605.437 37.9859 609.301 34.0354 614.163 31.257C619.112 28.4786 624.626 27.0894 630.703 27.0894C634.09 27.0894 637.302 27.6537 640.341 28.7825C643.467 29.9112 646.245 31.474 648.676 33.471C651.107 35.468 653.017 37.8122 654.407 40.5038H654.667V3.05176e-05H666.649V61.472C666.649 68.8521 665.129 75.1903 662.091 80.4867C659.139 85.6962 655.101 89.6901 649.979 92.4685C644.943 95.2469 639.169 96.6361 632.657 96.6361ZM632.657 86.3473C636.738 86.3473 640.428 85.3488 643.727 83.3519C647.027 81.3549 649.631 78.5331 651.541 74.8865C653.538 71.2398 654.537 66.942 654.537 61.993C654.537 56.9571 653.538 52.6159 651.541 48.9692C649.631 45.2358 647.027 42.3706 643.727 40.3736C640.428 38.3766 636.694 37.3781 632.527 37.3781C628.446 37.3781 624.713 38.42 621.326 40.5038C618.027 42.5876 615.379 45.4528 613.382 49.0995C611.472 52.7461 610.517 57.0005 610.517 61.8627C610.517 66.8986 611.515 71.2398 613.512 74.8865C615.509 78.5331 618.157 81.3549 621.457 83.3519C624.843 85.3488 628.576 86.3473 632.657 86.3473Z" fill="#505050"/>
<path d="M551.907 96.6373C545.916 96.6373 540.533 95.4217 535.757 92.9906C531.069 90.4727 527.379 86.9997 524.687 82.5716C522.083 78.1436 520.78 72.9775 520.78 67.0734V28.6534H532.892V66.9432C532.892 70.9371 533.76 74.4101 535.497 77.3621C537.233 80.2274 539.534 82.4414 542.4 84.0042C545.352 85.5671 548.477 86.3485 551.777 86.3485C555.163 86.3485 558.288 85.5671 561.154 84.0042C564.106 82.4414 566.45 80.2274 568.186 77.3621C570.01 74.4101 570.922 70.9371 570.922 66.9432V28.6534H583.034V67.0734C583.034 72.9775 581.688 78.1436 578.996 82.5716C576.305 86.9997 572.615 90.4727 567.926 92.9906C563.237 95.4217 557.898 96.6373 551.907 96.6373Z" fill="#505050"/>
<path d="M490.407 95.0765C484.503 95.0765 479.857 93.3835 476.471 89.9973C473.172 86.6111 471.522 82.0094 471.522 76.1921V11.9852H483.504V75.4107C483.504 78.2759 484.285 80.5768 485.848 82.3133C487.498 83.963 489.755 84.7878 492.621 84.7878H506.035V95.0765H490.407ZM460.061 38.9443V28.6555H506.296V38.9443H460.061Z" fill="#505050"/>
<path d="M400.06 95.0746V84.7859H431.838C433.922 84.7859 435.702 84.3517 437.178 83.4835C438.74 82.5284 439.913 81.3129 440.694 79.8368C441.475 78.3608 441.866 76.798 441.866 75.1483C441.866 73.5855 441.519 72.1529 440.824 70.8505C440.13 69.4613 439.044 68.376 437.568 67.5945C436.179 66.7263 434.486 66.2922 432.489 66.2922H419.075C414.82 66.2922 411.087 65.5976 407.874 64.2084C404.749 62.7324 402.274 60.6051 400.451 57.8268C398.714 55.0484 397.846 51.6622 397.846 47.6682C397.846 44.2821 398.671 41.1564 400.32 38.2912C401.97 35.4259 404.271 33.1251 407.223 31.3886C410.175 29.5653 413.279 28.5922 417.558 28.1383C421.837 27.6844 428.201 28.0175 432.262 28.5808C436.322 29.144 447.941 31.83 447.941 31.83L445.669 42.0047C434.164 38.9423 424.536 37.4462 418.701 38.2912C415.791 38.7125 413.735 39.7672 412.172 41.4168C410.609 43.0665 409.828 45.0201 409.828 47.2775C409.828 49.4482 410.609 51.3583 412.172 53.008C413.822 54.5708 416.123 55.3522 419.075 55.3522H431.838C436.613 55.3522 440.607 56.1337 443.82 57.6965C447.119 59.1725 449.594 61.3432 451.243 64.2084C452.98 67.0736 453.848 70.59 453.848 74.7576C453.848 78.3174 452.98 81.6602 451.243 84.7859C449.507 87.8247 447.076 90.2993 443.95 92.2094C440.911 94.1196 437.351 95.0746 433.27 95.0746H400.06Z" fill="#505050"/>
<path d="M316.928 27.0937C321.964 27.0937 326.566 27.9185 330.734 29.5682C334.901 31.131 338.504 33.4753 341.543 36.601C344.582 39.7267 346.926 43.5036 348.576 47.9316C350.313 52.2729 351.181 57.1785 351.181 62.6484C351.181 69.5076 349.748 75.4985 346.883 80.6212C344.105 85.7438 340.284 89.6944 335.422 92.4728C330.56 95.2512 325.047 96.6404 318.882 96.6404C315.496 96.6404 312.24 96.076 309.114 94.9473C306.075 93.8185 303.34 92.2557 300.909 90.2587C298.565 88.1749 296.655 85.8307 295.179 83.2259H294.918V123.73H282.937V62.2577C282.937 54.7908 284.413 48.4526 287.365 43.2431C290.404 38.0336 294.484 34.0396 299.607 31.2613C304.73 28.4829 310.503 27.0937 316.928 27.0937ZM316.928 37.3824C312.935 37.3824 309.244 38.3809 305.858 40.3779C302.559 42.3748 299.911 45.1966 297.914 48.8433C296.004 52.4899 295.049 56.7877 295.049 61.7368C295.049 66.7726 296.004 71.1573 297.914 74.8907C299.911 78.5374 302.559 81.3592 305.858 83.3562C309.244 85.3531 312.978 86.3516 317.059 86.3516C321.226 86.3516 324.96 85.3097 328.259 83.2259C331.558 81.1421 334.163 78.2769 336.073 74.6303C338.07 70.9836 339.069 66.7292 339.069 61.867C339.069 56.8312 338.07 52.4899 336.073 48.8433C334.076 45.1966 331.385 42.3748 327.999 40.3779C324.699 38.3809 321.009 37.3824 316.928 37.3824Z" fill="#505050"/>
<path d="M168.097 95.0732V3.05176e-05H180.078V95.0732H168.097Z" fill="#505050"/>
<path d="M204.872 1.01807H258.142V11.9868H204.872V1.01807Z" fill="#505050"/>
<path d="M117.952 96.6373C111.961 96.6373 106.578 95.4217 101.803 92.9906C97.1143 90.4727 93.4242 86.9997 90.7326 82.5716C88.1279 78.1436 86.8255 72.9775 86.8255 67.0734V28.6534H98.9376V66.9432C98.9376 70.9371 99.8058 74.4101 101.542 77.3621C103.279 80.2274 105.58 82.4414 108.445 84.0042C111.397 85.5671 114.523 86.3485 117.822 86.3485C121.208 86.3485 124.334 85.5671 127.199 84.0042C130.151 82.4414 132.495 80.2274 134.232 77.3621C136.055 74.4101 136.967 70.9371 136.967 66.9432V28.6534H149.079V67.0734C149.079 72.9775 147.733 78.1436 145.042 82.5716C142.35 86.9997 138.66 90.4727 133.971 92.9906C129.283 95.4217 123.943 96.6373 117.952 96.6373Z" fill="#505050"/>
<path d="M231.507 27.0899C225.516 27.0899 220.132 28.3055 215.357 30.7366C210.669 33.2545 206.978 36.7275 204.287 41.1556C201.682 45.5837 200.38 50.7498 200.38 56.6539V95.0742H212.492V56.7842C212.492 52.7902 213.36 49.3172 215.097 46.3651C216.833 43.4999 219.134 41.2858 221.999 39.723C224.951 38.1601 228.077 37.3787 231.376 37.3787C234.763 37.3787 237.888 38.1601 240.754 39.723C243.706 41.2858 246.05 43.4999 247.786 46.3651C249.61 49.3172 250.521 52.7902 250.521 56.7842V95.0742H262.634V56.6539C262.634 50.7498 261.288 45.5837 258.596 41.1556C255.905 36.7275 252.214 33.2545 247.526 30.7366C242.837 28.3055 237.498 27.0899 231.507 27.0899Z" fill="#505050"/>
<path d="M34.2524 96.636C29.2166 96.636 24.6148 95.8546 20.4473 94.2918C16.2797 92.6421 12.6764 90.2544 9.63756 87.1287C6.59869 84.003 4.21101 80.2696 2.47451 75.9283C0.824836 71.5003 0 66.5512 0 61.0813C0 54.1353 1.3892 48.1444 4.16759 43.1085C7.03281 37.9859 10.8965 34.0353 15.7587 31.2569C20.7077 28.4785 26.2211 27.0893 32.2988 27.0893C35.685 27.0893 38.8975 27.6537 41.9364 28.7824C45.0621 29.9112 47.8405 31.474 50.2716 33.471C52.7027 35.4679 54.6128 37.8122 56.002 40.5038H56.2625V0H68.2443V61.472C68.2443 68.8521 66.7249 75.1903 63.686 80.4866C60.734 85.6961 56.6966 89.6901 51.574 92.4685C46.5381 95.2469 40.7643 96.636 34.2524 96.636ZM34.2524 86.3473C38.3332 86.3473 42.0232 85.3488 45.3226 83.3518C48.6219 81.3549 51.2267 78.5331 53.1368 74.8864C55.1338 71.2398 56.1323 66.942 56.1323 61.9929C56.1323 56.9571 55.1338 52.6159 53.1368 48.9692C51.2267 45.2357 48.6219 42.3705 45.3226 40.3736C42.0232 38.3766 38.2898 37.3781 34.1222 37.3781C30.0414 37.3781 26.3079 38.42 22.9218 40.5038C19.6224 42.5876 16.9743 45.4528 14.9773 49.0994C13.0671 52.7461 12.1121 57.0005 12.1121 61.8627C12.1121 66.8985 13.1106 71.2398 15.1075 74.8864C17.1045 78.5331 19.7527 81.3549 23.052 83.3518C26.4382 85.3488 30.1716 86.3473 34.2524 86.3473Z" fill="#505050"/>
</svg>
