<?xml version="1.0" encoding="iso-8859-1"?>
<!-- Uploaded to: SVG Repo, www.svgrepo.com, Generator: SVG Repo Mixer Tools -->
<svg fill="#DF972E" height="800px" width="800px" version="1.1" id="Layer_1" xmlns="http://www.w3.org/2000/svg" xmlns:xlink="http://www.w3.org/1999/xlink" 
	 viewBox="0 0 512 512" xml:space="preserve">
<g>
	<g>
		<path d="M112,448c-8.848,0-16,7.168-16,16v32c0,8.832,7.152,16,16,16s16-7.168,16-16v-32C128,455.168,120.848,448,112,448z"/>
	</g>
</g>
<g>
	<g>
		<path d="M400,448c-8.848,0-16,7.168-16,16v32c0,8.832,7.152,16,16,16c8.848,0,16-7.168,16-16v-32C416,455.168,408.848,448,400,448
			z"/>
	</g>
</g>
<g>
	<g>
		<path d="M390.912,0H128.224C95.2,0,64,30.096,64,61.936V464c0,8.832,7.152,16,16,16h352c8.848,0,16-7.168,16-16V61.936
			C448,28.368,421.856,0,390.912,0z M416,448H96V61.936C96,47.952,113.152,32,128.224,32h262.688C405.264,32,416,47.808,416,61.936
			V448z"/>
	</g>
</g>
<g>
	<g>
		<path d="M256,0c-8.848,0-16,7.168-16,16v448c0,8.832,7.152,16,16,16c8.848,0,16-7.168,16-16V16C272,7.168,264.848,0,256,0z"/>
	</g>
</g>
<g>
	<g>
		<path d="M208,224c-8.848,0-16,7.168-16,16v48c0,8.832,7.152,16,16,16c8.848,0,16-7.168,16-16v-48C224,231.168,216.848,224,208,224
			z"/>
	</g>
</g>
<g>
	<g>
		<path d="M304,224c-8.848,0-16,7.168-16,16v48c0,8.832,7.152,16,16,16c8.848,0,16-7.168,16-16v-48C320,231.168,312.848,224,304,224
			z"/>
	</g>
</g>
</svg>