<?xml version="1.0" standalone="no"?>
<!DOCTYPE svg PUBLIC "-//W3C//DTD SVG 20010904//EN"
 "http://www.w3.org/TR/2001/REC-SVG-20010904/DTD/svg10.dtd">
<svg version="1.0" xmlns="http://www.w3.org/2000/svg"
 width="300.000000pt" height="638.000000pt" viewBox="0 0 300.000000 638.000000"
 preserveAspectRatio="xMidYMid meet">
<metadata>
Created by potrace 1.10, written by Peter Selinger 2001-2011
</metadata>
<g transform="translate(0.000000,638.000000) scale(0.100000,-0.100000)"
fill="#000000" stroke="none">
<path d="M320 3300 l0 -2670 1068 0 1067 0 -3 2670 -2 2670 -1065 0 -1065 0 0
-2670z m2110 2270 l0 -370 -1045 0 -1045 0 0 370 0 370 1045 0 1045 0 0 -370z
m0 -872 l0 -478 -1045 0 -1045 0 0 478 0 477 1045 0 1045 0 0 -477z m0 -973
l0 -465 -1045 0 -1045 0 0 465 0 465 1045 0 1045 0 0 -465z m0 -930 l0 -435
-1045 0 -1045 0 0 435 0 435 1045 0 1045 0 0 -435z m0 -722 l0 -268 -1045 0
-1045 0 0 268 0 267 1045 0 1045 0 0 -267z m0 -558 l0 -265 -1045 0 -1045 0 0
265 0 265 1045 0 1045 0 0 -265z m0 -575 l0 -290 -1045 0 -1045 0 0 290 0 290
1045 0 1045 0 0 -290z"/>
<path d="M1365 2171 c-10 -31 5 -52 34 -49 21 2 27 9 29 36 3 30 1 32 -27 32
-20 0 -32 -6 -36 -19z"/>
<path d="M1366 1595 c-10 -26 5 -45 35 -45 26 0 29 4 29 30 0 26 -3 30 -29 30
-16 0 -31 -6 -35 -15z"/>
<path d="M1365 1054 c3 -34 18 -47 44 -39 15 4 21 15 21 36 0 26 -3 29 -34 29
-31 0 -34 -3 -31 -26z"/>
</g>
</svg>
