<?xml version="1.0" standalone="no"?>
<!DOCTYPE svg PUBLIC "-//W3C//DTD SVG 20010904//EN"
 "http://www.w3.org/TR/2001/REC-SVG-20010904/DTD/svg10.dtd">
<svg version="1.0" xmlns="http://www.w3.org/2000/svg"
 width="300.000000pt" height="670.000000pt" viewBox="0 0 300.000000 670.000000"
 preserveAspectRatio="xMidYMid meet">
<metadata>
Created by potrace 1.10, written by Peter Selinger 2001-2011
</metadata>
<g transform="translate(0.000000,670.000000) scale(0.100000,-0.100000)"
fill="#000000" stroke="none">
<path d="M240 3435 l0 -3155 1260 0 1260 0 0 3155 0 3155 -1260 0 -1260 0 0
-3155z m2495 2685 l0 -440 -1235 0 -1235 0 0 440 0 440 1235 0 1235 0 0 -440z
m-2 -567 l-2 -98 -1233 -3 -1233 -2 0 100 0 100 1235 0 1235 0 -2 -97z m-1263
-138 c1 -3 -6 -13 -15 -21 -11 -12 -15 -12 -15 -2 0 10 -3 9 -10 -2 -5 -8 -10
-36 -10 -62 0 -36 4 -48 15 -48 8 0 15 -8 15 -17 0 -14 2 -15 9 -5 7 11 9 11
14 -1 11 -28 -4 -57 -29 -57 -13 0 -24 -4 -24 -10 0 -5 -11 -12 -25 -16 -14
-3 -25 -10 -25 -15 0 -5 -11 -9 -25 -9 -16 0 -25 -6 -25 -15 0 -10 -10 -15
-27 -15 -22 0 -25 -2 -13 -10 12 -8 11 -10 -7 -10 -14 0 -23 -6 -23 -15 0 -9
-9 -15 -25 -15 -14 0 -25 -4 -25 -10 0 -5 -7 -10 -15 -10 -8 0 -15 -7 -15 -16
0 -8 -4 -12 -10 -9 -6 4 -10 -10 -10 -34 0 -23 5 -41 10 -41 6 0 10 -7 10 -15
0 -13 43 -15 330 -15 287 0 330 2 330 15 0 8 5 15 10 15 6 0 10 24 9 53 0 38
-3 47 -9 32 -7 -17 -9 -17 -9 -2 -1 9 -8 17 -16 17 -8 0 -15 5 -15 10 0 6 -11
10 -25 10 -16 0 -25 6 -25 15 0 10 -10 15 -27 15 -21 0 -24 3 -14 9 11 7 9 10
-10 13 -13 2 -23 9 -22 16 2 7 -9 12 -28 12 -16 0 -28 4 -25 9 3 5 -6 12 -21
16 -21 5 -24 8 -12 16 10 6 2 9 -26 9 -26 0 -35 3 -27 9 11 6 10 10 -3 15 -11
4 -15 13 -12 25 4 18 -23 51 -43 51 -6 0 -10 18 -10 40 0 36 3 40 24 40 40 0
56 -11 56 -36 0 -25 7 -28 34 -18 17 7 22 44 6 44 -5 0 -10 7 -10 15 0 8 -9
15 -19 15 -22 0 -40 20 -19 20 7 1 277 1 601 1 l587 -1 3 -1245 2 -1245 -1235
0 -1235 0 2 1247 c2 687 3 1248 3 1248 582 0 1200 -5 1200 -10z m56 -250 c4
-8 17 -15 30 -15 14 0 23 -5 22 -12 -2 -7 8 -14 21 -16 19 -3 21 -6 10 -13
-10 -6 -5 -9 18 -9 25 0 31 -4 27 -15 -5 -11 1 -15 20 -15 14 0 26 -4 26 -10
0 -5 11 -10 25 -10 16 0 25 -6 25 -15 0 -9 9 -15 25 -15 20 0 25 -5 25 -25 l0
-25 -298 0 c-164 0 -301 3 -304 6 -14 13 6 44 28 44 15 0 24 6 24 15 0 9 10
15 26 15 14 0 23 4 19 10 -4 6 5 10 19 10 16 0 26 6 26 15 0 10 10 15 28 15
21 0 24 2 12 10 -12 8 -9 10 13 10 17 0 27 5 27 15 0 9 9 15 24 15 13 0 26 7
30 15 3 8 15 15 26 15 11 0 23 -7 26 -15z m-24 -2285 c1069 0 1219 2 1215 15
-4 8 -2 17 3 20 11 7 11 7 11 -122 l1 -88 -1234 0 -1233 0 0 75 c-1 85 7 159
13 123 l3 -23 1221 0z m-33 -215 c-1 -5 -5 -9 -10 -8 -5 2 -9 -5 -9 -15 0 -13
-2 -14 -9 -3 -7 11 -10 9 -15 -7 -11 -34 -4 -102 11 -102 7 0 13 -8 14 -17 0
-16 1 -15 8 1 7 19 8 19 13 -2 10 -37 -2 -62 -28 -62 -13 0 -24 -4 -24 -10 0
-5 -11 -12 -25 -16 -14 -3 -25 -10 -25 -15 0 -5 -11 -9 -25 -9 -16 0 -25 -6
-25 -15 0 -8 -9 -15 -21 -15 -11 0 -17 -4 -14 -10 3 -5 -3 -10 -14 -10 -12 0
-21 -4 -21 -9 0 -5 -11 -12 -25 -15 -14 -4 -25 -11 -25 -16 0 -6 -5 -10 -11
-10 -37 0 -53 -77 -22 -108 15 -15 52 -17 332 -19 301 -3 315 -2 333 17 32 34
17 110 -21 110 -6 0 -11 4 -11 10 0 5 -11 12 -25 16 -14 3 -25 10 -25 15 0 5
-6 9 -14 9 -8 0 -16 5 -18 11 -2 5 -12 12 -23 13 -11 2 -19 9 -18 15 2 6 -8
11 -22 11 -14 0 -25 4 -25 9 0 5 -12 12 -27 16 -21 5 -24 8 -12 16 10 6 2 9
-26 9 -26 0 -35 3 -27 9 11 6 10 10 -3 15 -12 4 -15 13 -11 31 5 18 2 25 -9
25 -8 0 -15 5 -15 10 0 6 -7 10 -15 10 -11 0 -15 11 -15 40 0 40 0 40 40 40
38 0 40 -1 41 -32 1 -18 1 -36 0 -40 0 -5 4 -8 9 -8 6 0 10 7 10 15 0 8 7 15
15 15 18 0 20 37 2 54 -7 8 -24 17 -37 21 -65 21 49 25 594 23 l586 -3 3
-1183 2 -1182 -1235 0 -1235 0 0 1185 0 1185 603 -2 c394 -2 602 -6 601 -13z
m61 -250 c0 -9 10 -15 26 -15 14 0 23 -4 20 -9 -3 -5 5 -12 19 -15 14 -4 25
-11 25 -16 0 -6 7 -10 15 -10 8 0 15 -4 15 -9 0 -5 11 -12 25 -15 14 -4 25
-11 25 -16 0 -6 11 -10 25 -10 14 0 25 -4 25 -10 0 -5 11 -12 25 -16 18 -4 25
-13 25 -30 l0 -24 -298 0 c-164 0 -301 3 -304 6 -13 12 6 45 28 50 13 3 24 10
24 15 0 5 11 9 25 9 14 0 25 4 25 10 0 5 11 12 25 16 14 3 22 10 19 15 -3 5 1
9 10 9 8 0 16 5 18 10 2 6 13 12 26 13 12 0 22 7 22 14 0 7 11 13 25 13 16 0
25 6 25 15 0 10 10 15 30 15 20 0 30 -5 30 -15z"/>
</g>
</svg>
