<?xml version="1.0" standalone="no"?>
<!DOCTYPE svg PUBLIC "-//W3C//DTD SVG 20010904//EN"
 "http://www.w3.org/TR/2001/REC-SVG-20010904/DTD/svg10.dtd">
<svg version="1.0" xmlns="http://www.w3.org/2000/svg"
 width="300.000000pt" height="671.000000pt" viewBox="0 0 300.000000 671.000000"
 preserveAspectRatio="xMidYMid meet">
<metadata>
Created by potrace 1.10, written by Peter Selinger 2001-2011
</metadata>
<g transform="translate(0.000000,671.000000) scale(0.100000,-0.100000)"
fill="#000000" stroke="none">
<path d="M300 3465 l0 -3105 1240 0 1240 0 0 3105 0 3105 -1240 0 -1240 0 0
-3105z m2450 2640 l0 -435 -1215 0 -1215 0 0 435 0 435 1215 0 1215 0 0 -435z
m0 -555 l0 -100 -1215 0 -1215 0 0 100 0 100 1215 0 1215 0 0 -100z m-1230
-135 c0 -2 -14 -12 -30 -20 -29 -15 -31 -20 -29 -65 2 -41 6 -50 25 -54 25 -7
35 -26 27 -55 -4 -16 -13 -21 -42 -21 -25 0 -32 -3 -22 -9 11 -7 9 -10 -10
-13 -13 -2 -23 -9 -22 -16 2 -7 -9 -12 -27 -12 -18 0 -29 -5 -27 -12 2 -11 -2
-13 -35 -17 -9 -1 -8 -4 2 -11 12 -8 9 -10 -12 -10 -14 0 -28 -5 -30 -10 -2
-6 -13 -12 -26 -13 -12 0 -22 -7 -22 -14 0 -7 -5 -13 -11 -13 -21 0 -39 -29
-39 -64 0 -25 4 -36 15 -36 8 0 15 -4 15 -10 0 -6 113 -10 320 -10 283 0 320
2 320 16 0 8 4 13 9 10 5 -4 13 8 16 26 6 24 3 35 -9 44 -13 9 -14 13 -4 17 7
3 3 6 -10 6 -21 1 -31 6 -67 39 -7 6 -22 12 -33 12 -11 0 -23 7 -26 16 -3 8
-10 12 -16 9 -5 -3 -10 1 -10 9 0 10 -9 16 -25 16 -16 0 -25 6 -25 15 0 10
-10 15 -27 15 -22 0 -25 2 -13 10 11 7 5 10 -25 10 -30 0 -36 3 -25 10 10 6
11 10 3 10 -7 0 -13 12 -13 26 0 26 -20 54 -39 54 -6 0 -11 7 -11 15 0 8 -6
15 -12 15 -9 0 -9 3 -2 8 6 4 13 15 17 25 12 31 66 17 71 -19 4 -29 50 -26 54
4 2 15 -2 22 -12 22 -9 0 -16 6 -16 13 0 7 -12 18 -27 24 -21 8 128 11 570 12
l597 1 0 -1525 0 -1525 -1215 0 -1215 0 0 1525 0 1525 600 0 c330 0 600 -2
600 -5z m43 -252 c-2 -8 7 -13 22 -13 14 0 25 -4 25 -9 0 -5 11 -12 25 -15 14
-4 25 -11 25 -16 0 -6 12 -10 28 -10 21 0 24 -2 12 -10 -13 -9 -13 -10 0 -11
8 -1 19 -1 23 0 4 1 10 -6 13 -14 4 -8 17 -15 31 -15 13 0 21 -4 18 -10 -3 -5
1 -10 9 -10 18 0 48 -29 44 -42 -2 -6 -121 -10 -301 -11 l-297 -2 0 22 c0 16
8 25 25 29 14 3 25 10 25 15 0 5 11 9 25 9 16 0 25 6 25 15 0 8 3 14 8 14 4
-1 16 -1 27 0 17 1 18 3 5 11 -11 7 -7 10 18 10 19 0 31 4 27 10 -3 5 6 12 20
16 13 3 22 10 19 15 -3 5 6 9 20 9 17 0 26 6 26 16 0 11 8 14 28 12 15 -2 26
-8 25 -15z m1187 -3123 l0 -310 -1215 0 -1215 0 0 310 0 310 1215 0 1215 0 0
-310z m0 -650 l0 -310 -1215 0 -1215 0 0 310 0 310 1215 0 1215 0 0 -310z m0
-665 l0 -335 -1215 0 -1215 0 0 335 0 335 1215 0 1215 0 0 -335z"/>
<path d="M1490 2162 c0 -37 1 -39 35 -39 34 0 35 2 35 39 0 37 -1 38 -35 38
-34 0 -35 -1 -35 -38z"/>
<path d="M1490 1515 c0 -33 2 -35 35 -35 33 0 35 2 35 35 0 33 -2 35 -35 35
-33 0 -35 -2 -35 -35z"/>
<path d="M1503 883 c-7 -2 -13 -20 -13 -39 0 -32 2 -34 35 -34 33 0 35 2 35
34 0 39 -21 54 -57 39z"/>
</g>
</svg>
