<svg width="100" height="250" viewBox="0 0 100 250" fill="none" xmlns="http://www.w3.org/2000/svg">
<rect x="0.5" y="0.5" width="99" height="249" fill="white" fill-opacity="0.75" stroke="black"/>
<line y1="36.5" x2="100" y2="36.5" stroke="black"/>
<line y1="82.5" x2="100" y2="82.5" stroke="black"/>
<line y1="127.5" x2="100" y2="127.5" stroke="black"/>
<line y1="169.5" x2="100" y2="169.5" stroke="black"/>
<line y1="36.5" x2="100" y2="36.5" stroke="black"/>
<line y1="195.5" x2="100" y2="195.5" stroke="black"/>
<line y1="221.5" x2="100" y2="221.5" stroke="black"/>
<circle cx="50.5" cy="230.5" r="1" fill="#D9D9D9"/>
<circle cx="50.5" cy="230.5" r="1" fill="#ABABAB"/>
<circle cx="50.5" cy="230.5" r="1" stroke="black"/>
<path d="M50.5 204.5C50.9876 204.5 51.3937 204.849 51.4821 205.311L50.5 206.293L49.5179 205.311C49.6063 204.849 50.0124 204.5 50.5 204.5Z" fill="#D9D9D9"/>
<path d="M50.5 204.5C50.9876 204.5 51.3937 204.849 51.4821 205.311L50.5 206.293L49.5179 205.311C49.6063 204.849 50.0124 204.5 50.5 204.5Z" fill="#ABABAB"/>
<path d="M50.5 204.5C50.9876 204.5 51.3937 204.849 51.4821 205.311L50.5 206.293L49.5179 205.311C49.6063 204.849 50.0124 204.5 50.5 204.5Z" stroke="black"/>
<path d="M50.5 177.5C50.9876 177.5 51.3937 177.849 51.4821 178.311L50.5 179.293L49.5179 178.311C49.6063 177.849 50.0124 177.5 50.5 177.5Z" fill="#D9D9D9"/>
<path d="M50.5 177.5C50.9876 177.5 51.3937 177.849 51.4821 178.311L50.5 179.293L49.5179 178.311C49.6063 177.849 50.0124 177.5 50.5 177.5Z" fill="#ABABAB"/>
<path d="M50.5 177.5C50.9876 177.5 51.3937 177.849 51.4821 178.311L50.5 179.293L49.5179 178.311C49.6063 177.849 50.0124 177.5 50.5 177.5Z" stroke="black"/>
</svg>
